<?xml version="1.0" encoding="utf-8"?>
<!-- Generator: Adobe Illustrator 24.1.2, SVG Export Plug-In . SVG Version: 6.00 Build 0)  -->
<svg version="1.1" id="Camada_1" xmlns="http://www.w3.org/2000/svg" xmlns:xlink="http://www.w3.org/1999/xlink" x="0px" y="0px"
	 viewBox="0 0 1612.3 1024" style="enable-background:new 0 0 1612.3 1024;" xml:space="preserve">
<style type="text/css">
	.st0{fill:#333333;stroke:#000000;stroke-miterlimit:10;}
	.st1{stroke:#000000;stroke-miterlimit:10;}
	.st2{fill:#E4E7EA;}
	.st3{fill:#DFE4E9;}
	.st4{fill:#E5EBEE;}
	.st5{fill:#D3D6DB;}
	.st6{fill:#E2E8EC;}
	.st7{fill:#D8DCDE;}
	.st8{fill:#F1F7F9;}
	.st9{fill:#E7ECF1;}
	.st10{fill:#FAFCFB;}
	.st11{fill:#C7CCD1;}
	.st12{fill:#D2D7DB;}
	.st13{fill:#FEFEFC;}
	.st14{fill:#D1D4DA;}
	.st15{fill:#C4C9CE;}
	.st16{fill:#C9CED2;}
	.st17{fill:#C2C7CC;}
	.st18{fill:#F6FAFB;}
	.st19{fill:#BAC0C5;}
	.st20{fill:#ECEFF2;}
	.st21{fill:#B1BEC6;}
	.st22{fill:#C9CFD3;}
	.st23{fill:#B7BDC5;}
	.st24{fill:#B0BBC4;}
	.st25{fill:#F2F4F7;}
	.st26{fill:#D2D8DA;}
	.st27{fill:#C4CACE;}
	.st28{fill:#AEB6BF;}
	.st29{fill:#B5BBC3;}
	.st30{fill:#FAFBFB;}
	.st31{fill:#DADFE5;}
	.st32{fill:#BCC2CA;}
	.st33{fill:#DBE2E7;}
	.st34{fill:#B6C2C8;}
	.st35{fill:#C8CDD1;}
	.st36{fill:#F9FCFB;}
	.st37{fill:#EAEEF0;}
	.st38{fill:#C6CBD1;}
	.st39{fill:#EBEFF4;}
	.st40{fill:#DADDE0;}
	.st41{fill:#F5F7F9;}
	.st42{fill:#BAC0C8;}
	.st43{fill:#DADCE2;}
	.st44{fill:#C4C7CE;}
	.st45{fill:#B8BEC6;}
	.st46{fill:#CCD1D6;}
	.st47{fill:#FCFCFC;}
	.st48{fill:#C4C9CF;}
	.st49{fill:#B3BCC3;}
	.st50{fill:#BDC3CB;}
	.st51{fill:#D8DEE3;}
	.st52{fill:#F6F9FC;}
	.st53{fill:#ADB6BF;}
	.st54{fill:#B0B6C0;}
	.st55{fill:#F3F9FA;}
	.st56{fill:#E3E8EC;}
	.st57{fill:#D8DBDE;}
	.st58{fill:#E7EDEF;}
	.st59{fill:#DDE1E3;}
	.st60{fill:#CED3D8;}
	.st61{fill:#C5CBCF;}
	.st62{fill:#D5D8DD;}
	.st63{fill:#ECF0F2;}
	.st64{fill:#E2E5E8;}
	.st65{fill:#F8F8F8;}
	.st66{fill:#E6E8EB;}
	.st67{fill:#E9EFF0;}
	.st68{fill:#FEFEFE;}
	.st69{fill:#DDE0E3;}
	.st70{fill:#FAFDFA;}
	.st71{fill:#C7CBCF;}
	.st72{fill:#C0C6CC;}
	.st73{fill:#CACFD3;}
	.st74{fill:#BBC4C9;}
	.st75{fill:#D8DBE0;}
	.st76{fill:#F7FAF9;}
	.st77{fill:#C1C8CD;}
	.st78{fill:#C1CACF;}
	.st79{fill:#F4F8FA;}
	.st80{fill:#FFFFFF;}
</style>
<path class="st0" d="M1516.5,468.5"/>
<path class="st1" d="M396.5,266.5"/>
<g>
	<g>
		<path class="st2" d="M1611,694.4c0,0.5,0,1.1,0,1.6c-5,3.1-11.3,3.1-17.6,3.1c-52.1,0.1-104.2,0.1-156.3,0c-5.8,0-11.8,0-16.7-2.5
			c-3.7-3.5-1.5-7.2-0.3-10.8c15.6-44.7,28.7-89.7,44.3-134.4c3.7-10.7,2.5-11.7-14.9-13.3c-85.6-8.1-171-17.2-256.6-25.5
			c-9.9-1-21.4,0-28.6-6.3c-1.4-2.9,1.1-5.1,3.5-7.3c44.9-40.8,89.9-81.5,134.7-122.3c2.9-2.6,5.7-5.3,5.4-8.7
			c0.8-2.5,3.1-4.3,6.4-5.6c1.8-0.5,3.7-0.8,5.6-0.9c30.1-5.1,57.3-14.9,85.8-22.4c31.3-8.2,62.4-16.9,93.8-25
			c15.3-4,17.5-2.3,17.3,8.3c-0.3,12.5-6.2,24.7-5.1,37.2c-9.3,43.2-16.3,86.5-25.6,129.7c-3.1,14.6-7.2,29.3-6.2,44.1
			c16.4,1,32.2-1.8,48.3-2.6c21.3-1,42.4-3.2,63.6-4.9c6.7-0.5,13.4-1.2,19,2.1c0,41.1,0,82.1,0,123.2c-11,6.3-25.6,7.7-38.7,11
			c-38.1,9.7-77,18.1-115.1,27.6c-5.1,1.3-10.3,2.2-15.7,2.7c-1.6,0.2,0.9,1.2,0.1,0.3c-0.2-0.2,0.2-0.3,1-0.4
			c18.4-1.4,36.8-0.6,55.2-0.7c31.8-0.1,63.6-0.1,95.5,0C1599.4,691.7,1605.9,691.3,1611,694.4z"/>
		<path class="st3" d="M170.5,1.6c212,0,424,0,636,0c1.5,1.6,0,2.8-1.4,4c-2.5,1.5-5.4,2.8-7.9,4.3c-21.8,9.8-44.8,18.4-67.5,27.3
			c-36.9,14.5-73.5,29.3-110.5,43.6c-3.6,1.4-6.7,3.2-10,4.8c-27.5,13.1-53.6,27.3-77.1,43.4c-1.2,0.9-2.8,1.6-4.7,1.9
			c-2,0.1-3.7-0.1-5.3-0.9c-4.2-19.7-17.6-37.6-27.6-56.1c-10.3-19.1-19.6-38.5-31-57.3c-1.3-2.1-1.4-5.6-5.4-5.9
			c-4.7-0.4-6.4,3-8.6,5.1c-36,35.5-72.1,71.1-108.2,106.6c-12.7,12.5-25.1,25.2-38.2,37.5c-4.1,3.8-6.9,7.9-8.3,12.4
			c-3.5,2.7-6.8,1.6-10.1-0.1c-14.4-13.6-22.7-29.1-32.9-43.9c-22.5-32.4-44.1-65-66.6-97.4c-4.7-6.8-8.3-13.9-13.8-20.6
			C169.1,7.4,168,4.5,170.5,1.6z"/>
		<path class="st4" d="M804,4.8c0.8-1.1,1.7-2.1,2.5-3.2c266.5,0,532.9,0,799.4,0c0.1,5-5.4,4.9-10.8,4.9c-8.4-2.2-16.6,0.2-24.6,1
			c-61.4,6.6-123.2,11.7-184.9,17.3c-51.7,4.7-103.4,10-155.3,13.9c-4.6,0.3-9.1,0.9-13.7,0.5c-15.8-2-29.2-7.6-43.5-11.8
			c-21.2-6.2-42.7-12-63.5-18.6c-3.2-1-6.7-2.4-10.5-0.6c-9.2,8.9-8.1,19.4-11.5,29.1c-8.5,24.7-16,49.5-23.3,74.3
			c-0.3,1.1-1.1,2-2,2.9c-0.8,0.7-1.8,1.1-3.1,1.3c-13.8-1.1-22.6-7.6-32.9-12.4C977.6,81,929.7,57.9,880.5,35.9
			c-16-7.2-31.6-14.8-47.6-22c-3.9-1.7-7.5-3.4-12.5-2.7c-3.2,1.7-2.1,3.9-2.1,6c0.7,63.9,0.1,127.8,0.2,191.7
			c0,4.2,0.5,8.5-1.5,12.7c-0.5,0.8-1.2,1.6-2.1,2.2c-8.3,2.1-13.3-2-18.7-4.5c-49.5-23.1-97.9-47.2-148.8-69.1
			c-1.5-0.8-2.5-1.7-2.6-2.9c0.7-1.5,2.6-2.6,4.1-3.8c46.9-42.8,94.3-85.4,141.8-127.8c2.2-1.9,4.6-3.8,7.2-5.5
			C800.7,8.9,803.3,7.2,804,4.8z"/>
		<path class="st5" d="M2.1,884.8c0-14.4,0-28.8,0-43.2c15.2-26.7,34.2-52.4,52.1-78.3c3.3-4.8,11-10.9,7-14.5
			c-4.4-4-13.9,1.7-21.6,2c-9.6,0.3-19,1.5-28.1,3.5c-3.2,0.7-6.6,1-9.4-0.7c0-23.5,0-46.9,0-70.4c2.7-3.8,7.6-6,12.9-8.2
			c8.3-3.4,16.5-7,24.7-10.6c6.9-3,11.1-6.8,10-12.4c0.7-0.7,1.5-1.4,2.4-2.1c1.3-15.2,1.2-30.3-0.4-45.4c-0.3-2.7-1.3-5.3-1.2-8
			c1.2-24.3-3-48.4-2.7-72.7c0-3.7-0.3-7.5,1.4-11.1c2.3-3.9,6.5-3.5,11.1-1.9c4.5,1.5,8,3.9,11.5,6.1c46.8,30.4,93.8,60.7,140,91.6
			c11.5,7.7,23.4,15.2,35.7,22.4c8.3,4.8,10.6,5.1,15.8-1.3c13-16.1,27.8-31.5,41.3-47.5c18.6-22,37.5-44,57.2-65.7
			c2.9-3.2,6.2-8.7,14.1-2.6c0.1,20.8-4.8,41.4-8,62c-4,26.5-7.3,53-11.8,79.4c-0.6,3.7-0.5,7.5-4.1,10.7c-7.7,4.9-15,1-21.7-0.9
			c-20.5-5.9-40.8-12.1-61.7-17.4c-2.3-0.6-4.4-1.5-7.1-1.1c-5.7,1.6-7,5.1-9.2,8.2c-10.1,14.6-22.8,28.3-32.1,43.1
			c-27.6-5.2-54.3-12.3-81.2-18.8c-20.7-5-42.2-8.7-62.3-14.8c-3-0.9-6.1-1.9-9.5-0.5c-2.3,1.1-3.1,2.5-2.7,4.2
			c4.8,24.6,5.1,49.5,13.4,73.8c0.1,3.5,4.2,5.5,7.5,7.9c25.1,18.8,50,37.7,74.4,56.9c1.1,1.4,2,2.8,1.1,4.4
			c-1.2,0.9-2.8,1.4-4.6,1.8c-21.2,8.5-39.7,19.2-59.6,28.8c-28.3,13.5-56.3,27.3-83.8,41.4C9.9,884.9,6.7,887,2.1,884.8z"/>
		<path class="st6" d="M2.1,488c0-72.5,0-145.1,0-217.6c4.1-2.1,7.9-0.5,11.7,0.5c33.8,8.4,67.1,17.7,100.6,26.6
			c53.5,14.2,107,28.6,160.7,42.5c13.5,3.5,26.3,8,39.8,11.6c5.3,2.4,14.8,1.3,15.3,7.6c-43.3,24.7-88.4,48-132.7,72
			c-43.5,23.4-87,46.8-130.4,70.2c-3.6,1.9-6.1,4.3-9.3,6.4c-1.6,0.6-3.4,0.9-5.3,0.8C34.7,502.7,18.2,495.5,2.1,488z"/>
		<path class="st7" d="M1231.4,1025.6c-112.3,0-224.6,0-336.9,0c-1.9-1.8-8.3,0.7-8-3.3c2.9-2.3,7.2-2.9,11.3-3.8
			c5.9,0.5,10.4-1,14.1-3.9c45.5-35.7,91.5-71.2,137.2-107.9c-17.6-1.3-33.5,2.5-49.6,3.8c-58.8,5-117.6,9.9-176.4,15.4
			c-7,0.7-14,1.4-20.9,2.7c-2.9,0.3-5.1-0.5-6.6-2c-0.5-0.8-0.5-1.6-0.2-2.4c27.5-35,49.1-71.7,76.1-106.8c9.2-9.4,11.5-9.9,24.9-3
			c54.9,28,108.4,57,163.1,85.1c34.4,23.5,68.4,47.2,101.4,71.5c19.3,14.3,40.6,27.5,59.4,42
			C1225.1,1016.7,1232.5,1019.7,1231.4,1025.6z"/>
		<path class="st8" d="M155.5,811.3c1.6,0,3.2,0,4.8,0c7.4,2.5,8.9,7.5,11.7,11.9c40.4,64,81.1,127.9,122.2,191.7
			c1.3,2,2.6,3.9,2.6,6.1c0,1.8-1.3,3.3-3.2,4.6c-1.7,0-3.4,0-5,0c-29.5-1.8-59.1-2.5-88.4-5.1c-61-5.4-122.2-9.7-183-15.5
			c-5.4-0.5-10.9-0.8-15.1-3.4c0-9.1,0-18.1,0-27.2c9.4-15.2,22.9-29,36.5-42.6c24.7-24.7,46.4-50.5,70.9-75.3
			c11.8-11.9,22.1-24.4,33.8-36.4C146.5,816.8,150,813.4,155.5,811.3z"/>
		<path class="st9" d="M1231.4,1025.6c-24.7-21-54.6-39.1-81.5-58.9c-30.2-22.2-61.3-43.9-92-65.9c0.4-0.3,0.8-0.7,1.2-1
			c32.4-7.2,64.3-15.2,96.5-22.7c75.8-17.7,151.7-35.3,227.3-53.2c6.6-1.6,13.2-3.4,19.3-5.8c5.4-0.9,9.5-0.1,11.7,3.4
			c0.3,0.8,0.2,1.7-0.2,2.5c-16.4,16.4-29.8,33.8-44.1,50.9c-37.8,45.3-77.1,90.2-113.9,135.8c-2.3,2.8-4.4,5.7-6.1,8.7
			c-2.1,4-8.5,4.3-13.1,6.2C1234.7,1025.6,1233,1025.6,1231.4,1025.6z"/>
		<path class="st10" d="M1419.9,694.4c3.8,2.4,8.6,1.6,13.1,1.6c59.3,0,118.7,0,178,0c0,6.4,0,12.8,0,19.2
			c-4.8,3.1-11.2,3.3-17.3,4.1c-79.8,9.8-159.2,20.4-238.9,30.6c-32.4,4.2-64.7,8.7-97.5,11.8c-2.2,0-4.2-0.3-6-1
			c-9.6-11.6-14.1-24.4-20.4-36.8c-13.4-26.4-26.9-52.7-40.4-79.1c-4.8-9.3-9.7-18.7-12.2-28.5c0.3-1.8,1.2-3.3,3.9-4.2
			c6.7-0.5,12.1,1.7,17.6,3.5c70.1,24.4,140.5,48.3,210.5,72.8C1414.1,690,1418.7,691.1,1419.9,694.4z"/>
		<path class="st11" d="M293.7,1025.6c0-1.6,0-3.2-0.1-4.8c17.8-5.6,28.8-16,41.9-24.7c11.5-7.6,23.2-15.3,34.7-22.9
			c26.6-17.6,51.8-36,79.9-52.8c4.7-2.8,8.8-5.8,6.7-10.3c-0.2-1.7,0.3-3.2,2-4.5c2.8-1,4.9-0.2,7,0.9c2,1.7,4.3,3.1,7.4,3.9
			c30.9,0.4,61.7,2.1,92.5,3.4c51.7,2.2,103.5,3.5,155.1,6c17.9,0.8,36,0.1,53.8,1.9c4.1,0.4,8.4,0.3,12.2,1.5c7,3.8,1.7,6-3.1,7.8
			c-6.2,2.3-13.4,3-20.2,4.3c-90,17.7-179.8,35.9-269.8,53.8c-48.4,9.6-96.8,19-144.9,29.3c-9.1,1.9-19.1,1.8-27.3,5.5
			c-1,0.5-2,1.1-2.9,1.7C310.4,1025.6,302.1,1025.6,293.7,1025.6z"/>
		<path class="st12" d="M170.5,1.6c18.7,28,37.1,56.2,56.1,84.1c16.8,24.8,34.5,49.3,51.3,74c2.6,3.9,7.9,7,8.2,11.5
			c1,0.8,0.9,1.4-0.4,2c-9.2,0.4-17-2.7-24.8-4.8c-72.7-19.7-146.6-37.4-219.3-57c-6.2-1.7-12.4-3.3-17-6.5c-1.9-2-0.9-3.9,0.4-5.8
			c10.6-10.3,24.9-18.6,37.9-27.6C92.9,50.7,121.2,29,152.4,9c4.1-2.7,8.5-5.1,13.1-7.4C167.1,1.6,168.8,1.6,170.5,1.6z"/>
		<path class="st13" d="M1475.1,536c-2.9-9.5,2.4-18.6,3.8-27.9c3-20,7.5-39.9,11.5-59.9c4.8-24.4,9.6-48.8,14.4-73.2
			c1.1-5.5,2.2-11,3.3-16.5c3.4-10,5.4-20.1,6.4-30.4c0.6-6.3,0-13.4,11.7-16.7c25.9-0.5,51,3.2,76.4,5.5c3.4,0.3,6,1.7,8.4,3.2
			c0,37.9,0,75.7,0,113.6c-13.5,15.1-33.2,27.3-50.3,40.6C1538,492,1514,509,1492,527.1C1487.5,530.8,1483.3,535,1475.1,536z"/>
		<path class="st14" d="M1256.5,760c26.4-3.7,52.7-7.5,79.1-11c26.9-3.5,53.8-6.6,80.7-10c62-7.8,123.9-15.8,185.8-23.7
			c2.8-0.4,5.8-0.1,8.7-0.2c0,11.7,0,23.5,0,35.2c-9.7,6.6-23.2,9.3-35.1,13.5c-46.1,16.5-91.9,33.4-138.5,49.3
			c-7.7,2.7-14.5,6.2-21.6,9.5c-1.2,0.3-2.4,0.2-3.5-0.3c-1.9-2.9-5.7-3.5-10.1-3.2c-4.2,1.8-8.4,2.3-12.6-0.1
			c1.2-4.4-3.7-6-8.4-7.8c-36.4-14.2-73.3-27.8-109.9-41.8C1265.2,767.3,1257,766,1256.5,760z"/>
		<path class="st15" d="M1236.4,1025.6c3.4-2.1,6.7-4.3,10.1-6.4c5.9-6,16.4-8.1,25-11.7c51.3-21.4,103.7-41.7,156.1-62
			c4.6-1.8,9.1-3.8,15.1-3.1c30.1,8.8,57,21,85,32c24.5,9.6,49.3,18.9,73.6,28.7c3.5,1.4,6.9,3,9.8,4.9c0,5.9,3.6,14-1,17
			c-4.6,2.9-17.4,0.6-26.6,0.6C1467.7,1025.6,1352,1025.6,1236.4,1025.6z"/>
		<path class="st16" d="M1611,320c-28.5-1.9-56.6-5.9-85.3-6.5c-10.6,0.5-15.1-3.5-18.7-9.1c-34.4-53.4-70.3-106.5-104.8-159.9
			c-2.7-4.2-6.3-8.1-6.6-12.8c0.3-1.3,1.3-2.2,3.1-2.8c5.9-0.7,9.1,2,12.8,4.1c27.6,15.5,56.4,30,84.3,45.3
			c30.5,16.6,61.6,32.7,91.9,49.4c2.7,1.5,4.9,3.8,9.4,3.4c5-0.9,7.5-5.3,14-4C1611,258.1,1611,289.1,1611,320z"/>
		<path class="st17" d="M1414.8,822.5c0.4-4.7,7-5.9,11.6-7.6c59-21.1,118.2-42.1,177.5-63c2.1-0.8,4.7-1,7.1-1.5
			c0,46.9,0,93.9,0,140.8c-6.5,2.7-11-0.5-15.9-2.2c-57.3-19.7-113.1-41.2-170.2-61.2c-2.6-0.9-5.4-1.5-7.9-2.3
			C1415.3,824.7,1414.1,823.9,1414.8,822.5z"/>
		<path class="st18" d="M1414.8,822.5c0.8,0.5,1.6,1,2.5,1.6c16.2,8.2,28.1,18.9,41,29c46.5,36.3,93.3,72.4,139.6,108.8
			c5,4,9.5,8.1,13.1,12.6c0,11.2,0,22.4,0,33.6c-16.7-2.9-29.9-10-44.3-15.4c-39-14.6-76.1-31.2-116.1-44.8c-2.9-1-5.4-2.5-8-3.8
			c-6.4-2.1-8.1-5.9-9-9.9c-6.5-27.1-13.8-54.1-18-81.3c-0.9-5.9-3.7-11.5-5-17.2c-0.9-3.9-2.5-7.9,1.9-11.5c0-0.5,0-1,0-1.5
			C1413.2,822.5,1414,822.5,1414.8,822.5z"/>
		<path class="st19" d="M318.8,1025.6c0-0.5,0-1.1,0-1.6c19-5.6,39.8-5.8,59.9-7.3c75.6-5.8,151.2-11.4,226.8-16.9
			c41.9-3.1,83.7-7.2,126-8.2c28.1,4,55.4,9.6,83,14.8c15.2,2.9,30.5,5.4,45.6,8.4c9.4,1.8,19.6,2.7,26.8,7.8c2.6,1,5.1,2.1,7.6,3.2
			C702.6,1025.6,510.7,1025.6,318.8,1025.6z"/>
		<path class="st20" d="M1595.8,4.8c4.3,0.2,8.1-0.3,10.1-3.2c7.8-1,4.4,2.8,5,4.8c-1.4,1.1-2.5,2.4-4.8,3
			c-11.8,5.6-19.6,13.6-29.4,20.3c-13.2,9.1-26,18.5-38.9,27.9c-2.2,1.6-4.7,3-8.1,3.6c-60.7,6.7-121.7,11.9-182.4,18.3
			c-40.5,4.3-81.3,7.1-121.7,11.9c-4.5,0.5-9.1,1-13.7,0.6c-3.5-0.5-7.2-0.7-8.9-3.3c1.2-4.3,7.2-4.9,12.1-5.9
			c33.4-7.1,66.7-14.3,100.1-21.3c80.7-17.1,161.3-34.2,242-51.3C1569.8,7.7,1582.2,4.6,1595.8,4.8z"/>
		<path class="st21" d="M313.8,353.6C209.9,325.9,106,298.1,2.1,270.4c0-9.1,0-18.1,0-27.2c3.5-2.2,7.9-2.9,12.5-2.9
			c18.6,0,37.3-0.7,55.9,0.4c13.5,1.4,22.7,7.8,33.1,12.4c67.9,30.6,136.1,60.8,203.6,91.7c4.1,1.9,8.3,3.6,9.9,6.9
			C316.9,353.1,316.5,354.2,313.8,353.6z"/>
		<path class="st22" d="M1611,974.4c-15.2-8.8-26.5-19.6-39.4-29.6c-32.8-25.3-65.7-50.7-97.9-76.3c-18.7-14.9-39.6-28.6-56.3-44.5
			c11.5,1.1,20.5,5.6,30.2,9.1c48,17.1,95.6,34.5,143.6,51.6c6.5,2.3,12,6,19.9,6.5C1611,918.9,1611,946.7,1611,974.4z"/>
		<path class="st23" d="M155.5,811.3c-37.9,40.9-75.2,82-114.7,122.3c-13.2,13.5-23.3,28.2-38.7,40.8c0-29.9,0-59.7,0-89.6
			c15.1-7.3,30.4-14.4,45.4-21.8c30.9-15.1,61.5-30.4,92.7-45.2C145,815.6,147.8,810.9,155.5,811.3z"/>
		<path class="st24" d="M2.1,488c5.1-0.6,8.5,1.6,12.3,3c13,5,26,10,37.8,16.2c1.6,1,1.7,2.1,0.2,3.2c0.8,29.4,0.3,58.8,3.1,88.1
			c1.6,16.4,1,32.8,1.7,49.2c0.1,1.7,4.1,6.1-4.6,5c-12.6-7.5-17.7-17.9-25.9-27.2c-8.8-9.9-19-19.4-24.7-30.4
			C2.1,559.5,2.1,523.7,2.1,488z"/>
		<path class="st22" d="M1475.1,536c41.9-32.2,83.8-64.4,125.8-96.5c2.9-2.2,6.7-3.9,10-5.9c0,31.5,0,62.9,0,94.4
			c-26.9,0.2-53.3,3.9-80,5.5c-16.4,1-33,1.5-49.1,3.9C1479.3,537.9,1476.8,537.3,1475.1,536z"/>
		<path class="st25" d="M165.5,1.6c-0.1,2.7-3,4.2-5.6,6C115.6,36.7,74,67.4,31.2,97.3c-1.1,0.8-2.6,1.3-4,1.9
			c-5.7,4.1-8,0.2-11.1-1.9C8.5,80.1,5.6,62.3,3.3,44.5C3.2,43,3.9,41.3,2.1,40c0-1.1,0-2.1,0-3.2c5.3-3.7,12.7-5,19.7-6.6
			c36.9-8.5,74.3-15.9,110.8-25c7.5-1.9,15.8-0.9,22.8-3.6C158.8,1.6,162.1,1.6,165.5,1.6z"/>
		<path class="st26" d="M75,243.2c-24.3,0-48.6,0-72.9,0c0-25.6,0-51.2,0-76.8c13-3.8,26-0.9,38.9,0.1c5.3,0.4,10.4,1.7,15.8,1.9
			c10.7,0.3,17.9,3.6,21.5,10.1c3.2,19.4,1.3,38.8,1.1,58.3C79.3,239.2,78.2,241.6,75,243.2z"/>
		<path class="st27" d="M1611,694.4c-59.3,0-118.7,0-178,0c-0.2-0.4-0.5-0.9-0.7-1.3c17.1-4.3,34.1-8.8,51.3-12.9
			c33.4-8.1,66.9-16,100.4-23.9c8.8-2,17.2-5.1,27-5.1C1611,665.6,1611,680,1611,694.4z"/>
		<path class="st28" d="M2.1,1001.6c29.7,2.3,59.5,4.5,89.2,6.9c43.3,3.5,86.6,7,129.9,10.7c22.6,1.9,45,4.2,67.6,6.3
			c-92.2,0-184.5-0.1-276.7,0.2c-8.9,0-10.9-1.3-10.1-6.7C2.7,1013.3,2.1,1007.4,2.1,1001.6z"/>
		<path class="st29" d="M2.1,753.6c18.2-4.9,38.5-4.2,56.7-9c3-0.8,6.9-1.3,9.5,0.5c3,2.1-0.6,3.8-1.8,5.6
			c-18.3,27.2-36.6,54.5-54.8,81.7c-2.3,3.4-5.3,6.6-9.5,9.3C2.1,812.3,2.1,782.9,2.1,753.6z"/>
		<path class="st30" d="M1611,227.2c-4.2,2.1-8.4,4.2-12.6,6.4c-7.6-1.6-9.1-5.9-9.1-10.1c-0.1-28.2-7-56.1-8.2-84.2
			c-0.5-10.9-2.3-21.7-3.2-32.6c-0.4-4.2-1.6-8.5,2.7-12.3c12.4-2.2,21.2,2.5,30.5,6.4C1611,142.9,1611,185.1,1611,227.2z"/>
		<path class="st31" d="M75,177.6c-4.8-4.9-11.8-5.8-20.6-6.8c-17.4-2-34.9-2.9-52.3-4.4c0-22.4,0-44.8,0-67.2
			C5.6,97,9.6,97.6,13,99.1c3.8,1.7,4.7-0.7,6.7-1.5c2.2,1.1,3.8,3.3,7.5,1.7c-0.8,1.6-1.7,3.2-2.5,4.8c18.7,21.8,35,44.3,52,66.6
			c1.1,1.4,1.9,2.9,1.9,4.6C78.2,176.5,76.9,177.3,75,177.6z"/>
		<path class="st5" d="M155.4,1.6c-1.1,0.8-1.9,2-3.2,2.3c-25.8,5.8-51.6,11.5-77.5,17.2C54.1,25.7,33.4,30.3,12.8,35
			C9.3,35.8,6,37,2.1,36.8c0-10.1,0.4-20.3-0.2-30.4c-0.2-4,1.4-4.9,7.7-4.9C58.2,1.7,106.8,1.6,155.4,1.6z"/>
		<path class="st11" d="M1611,100.8c-10.3-0.3-18.8-3.7-27.6-6.4c-2.9-0.8-4.5-2.2-4.7-4.2c0-5.9,2-11.6,4.2-17.3
			c7.3-19.1,13-38.4,18.6-57.7c0.7-2.6,0.9-5.3,4.7-7.1c1.6-0.6,3.3-1.1,4.9-1.7C1611,37.9,1611,69.3,1611,100.8z"/>
		<path class="st32" d="M49.7,652.8c5.7,3.1,7,5.4-0.1,9.2c-14.9,8-31.9,13.9-47.5,21.1c0-17.6,0-35.2,0-52.8c1.6-0.6,3.3-0.6,4.7,0
			C22.1,637.2,38.9,642.7,49.7,652.8z"/>
		<path class="st33" d="M49.7,652.8c-15.9-7.5-31.8-15-47.7-22.4c0-11.7,0-23.5,0-35.2c13,9.4,20.4,21,29.7,31.7
			c7.3,8.5,16,16.5,20.9,25.8C51.7,652.8,50.7,652.8,49.7,652.8z"/>
		<path class="st34" d="M19.7,97.6c-0.4,2.8,1.4,7.4-7.2,3.4c-3-1.4-6.6-2-10.5-1.8C2,79.5,2,59.7,2,40c7.3,16.4,10.4,33.3,15,50
			C17.7,92.6,17.3,95.3,19.7,97.6z"/>
		<path class="st35" d="M1419.9,694.4c-60.9-21-121.8-42-182.7-63c-17.9-6.2-35.7-12.4-53.6-18.6c-5.8-0.6-8.5-2.9-8.5-6.5
			c0-3.4-0.9-6.7-2.5-10c-5.8-28.2-9-56.6-12.9-84.9c-0.1-1.8-1-3.5-0.1-5.3c1.3-1.7,3.1-2.8,6.3-2.2c7.8,6.9,20.3,4.9,30.6,6
			c41.7,4.8,83.8,8.7,125.7,12.8c45.2,4.4,90.5,8.9,135.8,13c10.4,0.9,15.6,2.3,12.5,10.3c-6.9,17.8-12,35.8-17.9,53.7
			c-10,30.3-20,60.7-30.1,91C1422.1,692.2,1420.8,693.3,1419.9,694.4z"/>
		<path class="st27" d="M1165.9,504c-1.7,0.5-3.4,1.1-5.1,1.6c-3.3,2.3-7.6,2.2-11.6,1.6c-55.6-8.4-111.5-16-166.5-26.1
			c-3-1.4-4.1-3.6-5.9-5.5c-5.6-9.2-9.7-18.7-13.6-28.3c-3.8-9.4-1.5-11.9,13.3-15.6c47.6-10.1,95.6-19.4,143.5-28.9
			c48.3-9.6,96.8-18.9,144.8-29.1c11.1-2.4,22.6-4,33.8-6.3c3.5-0.7,7.3-1.4,10.7,0.5c9.3,2.1,1.6,4.7-0.1,6.3
			c-17.3,16.2-35.1,32.1-52.7,48.2c-24.2,22.1-48.5,44.3-72.2,66.6C1178.7,494.3,1172,499,1165.9,504z"/>
		<path class="st36" d="M1397.3,131.2c17.4,26.5,34.8,52.9,52.2,79.4c21,31.9,42,63.7,62.6,95.7c2.8,4.3,8,5.6,13.6,7.3
			c-8.3,5.6-9.9,12.1-10.1,19.7c-0.3,8.5,0.6,17.5-7.6,25.2c2-13.2,3.5-26.4,6.2-39.5c1.1-5.2-1-5.8-7.7-4
			c-41.7,11.3-83.5,22.5-125.3,33.8c-18.8,5.1-37.6,10.1-56.3,15.2c-2.2,0.6-4,0.6-5.6-0.6c-4.1-3.4-2.2-7.2-1.1-10.8
			c13.9-42.2,26.5-84.5,40.5-126.6c9.4-28.3,18-56.8,27.8-85.1C1389.6,137.3,1385.2,130.5,1397.3,131.2z"/>
		<path class="st37" d="M1309.3,367.9c-47.4,9.5-94.7,19-142.1,28.4c-45.4,8.9-91,17.2-136.2,26.6c-17.8,3.7-35.9,6.9-53.6,10.7
			c-2.9-3.6-1.8-5.9,6.8-8.3c12-3.4,22.3-8.4,33.3-12.7c75.7-29.4,151-59.3,226.6-88.9c3.1-1.2,7-2,8.1-4.6c0.6-1.4-0.2-2.8-0.3-4.2
			c0-1.1,0.4-2.1,1.4-3c3.5-1.4,7.5-0.5,11.3-0.9c1.1,0.1,2.2,0.4,3.2,0.8c3.3,2.1,6.3,4.3,9,6.7c12.3,11.8,23,24.1,35,36
			c2.6,2.6,6.5,5.2,2.7,8.7C1314.5,365.5,1311.2,366.4,1309.3,367.9z"/>
		<path class="st38" d="M1314.4,363.1c-9.4-12.8-22.7-24.2-33.7-36.4c-2.5-2.7-5.9-5-6.7-8.3c-5.2-4.6-2.8-9.3-0.5-14
			c35.9-52.3,69.4-105.1,104-157.8c1.9-2.9,3.3-6.2,8.6-7.4c2.1-0.5,4.2-0.6,3.7,1.6c-7,22.6-14,45.3-21.1,67.9
			c-11.6,37-22.7,74-35.2,110.8c-4.9,14.5-9.4,29.1-14.3,43.6C1317.7,363.2,1316,363.2,1314.4,363.1z"/>
		<path class="st39" d="M645.6,147.3c0.9,0.5,1.7,1,2.6,1.6c6.4,4.8,4.7,10.6,4,16.1c-3.1,23.6-3.9,47.2-6.6,70.8
			c-1,8.8-2.1,17.5-3.8,26.1c-3.7,9.7-6.9,19.3,5.3,27.7c42.9,29.1,83.7,59.3,125.3,89.1c7.5,5.4,15.6,10.4,22.3,16.2
			c2.9,2.5,6.8,4.9,4.8,8.6c-4,3.6-10.2,4.5-16.3,5.4c-96,15.4-192,30.6-288.1,45.8c-7.1,1.1-14.9,3-20.2-2.6
			c-3.2-12.9,2.3-25.4,4-38c5.6-41.6,13-83.1,19.2-124.7c5.2-34.4,11.1-68.8,16.2-103.3c2.2-14.8,4.6-29.7,7.2-44.5
			c3-3.8,0.9-8.6,6-12c0.9-0.6,1.7-1.1,2.6-1.7c4.1-2.1,8.6-1.4,13-0.7c30.5,5.1,61.1,9.9,91.4,15.5
			C638.8,143.6,643.4,144.3,645.6,147.3z"/>
		<path class="st40" d="M527.5,129.6c-0.8,3.8,2,7.8-2.5,11.2c-2.2-1.1-2.6-2.6-1.4-4.7c-18.8,24.1-39.3,46.9-59.2,70
			c-40.8,47.3-81.9,94.4-122.9,141.7c-2,2.3-3.5,5.2-8.6,5.2c-7,0-7.9-4-10.4-7c-5.7-16.4-8.2-33-12-49.6
			c-8.3-36.3-16.3-72.5-25-108.8c-1.2-4.9-3.4-10,0.6-14.8c0-0.5,0-1.1,0-1.6c2.5,0.5,5,2.3,7.5,0c3-3.3,8.2-4.4,13.4-5.4
			c49-9.1,97.8-18.7,147.2-27c17-2.9,33.4-7,50.4-10c6-1,12.1-2.7,17.7,0.8C524.1,129.6,525.8,129.6,527.5,129.6z"/>
		<path class="st39" d="M522.4,129.6c-14.6-0.3-27.5,4.1-41.1,6.5c-42.9,7.6-85.5,15.8-128.2,23.8c-19.8,3.7-39.6,7.6-59.5,11.4
			c-5.6-4.1,0.4-7.2,3.1-9.9c24-23.9,48.2-47.8,73.1-71.3c17.8-16.9,34-34.5,52.4-51.2c9.8-8.9,19-18.5,27.9-28.1
			c2.1-2.3,4.8-5.2,9.1-4.9c5,0.3,4.4,3.9,5.7,6.3c16.5,30,33.2,60,49.7,90c3.6,6.5,6.8,13,10.3,19.5
			C526.5,124.5,525.7,127.2,522.4,129.6z"/>
		<path class="st41" d="M801.4,11.2c-20,16-36.9,33.5-56,49.9c-23.2,19.8-44.1,40.7-67.7,60.2c-9.6,7.9-18.2,16.3-27.3,24.4
			c-5.9,0.4-8.1-2.3-9.8-5c-10.5-16.1-22.2-31.9-32.4-48.2c-1.5-2.4-3.4-4.9-0.5-7.5c0.7-3.5,5.5-4.6,9.2-6.1
			c53.3-20.8,106.8-41.5,159.2-63.3c6.6-2.7,13.6-5.1,20.4-7.6C800.5,7.5,802.2,8.6,801.4,11.2z"/>
		<path class="st42" d="M607.7,85c12.4,18.8,24.9,37.7,37.3,56.5c1.2,1.8,2.6,3.3,5.5,4.2c-1,1.3-2.9,1.4-4.8,1.6
			c-38.5-6.4-77.1-12.9-115.6-19.4c7.7-9.4,22.6-14.5,33.8-21.8c10.4-6.8,23.3-11.9,33.8-18.8C600.4,85.5,603.6,84.5,607.7,85z"/>
		<path class="st39" d="M801.4,11.2c-1.6-1.1-3.3-2.1-4.9-3.2c1.5-2.1,4-3.1,7.5-3.2C808.6,7.8,805.6,9.6,801.4,11.2z"/>
		<path class="st36" d="M1264.1,311.9c-3.3,2.8-6.8,0.9-10.2,0.2c-5.2,2.3-10.6,0.8-15.6-0.1c-49.5-8.9-98-19.7-147.1-29.2
			C1046,274,1001,265.1,956.1,256c-43.4-8.8-87-17.1-130.2-26.2c-4.8-1-11.1-1.1-11.8-5.7c0-67.6,0-135.3,0-202.9
			c0-2.4,0.3-4.9-0.8-7.1c-1.4-2.9-1.1-6.1,1.8-7.4c3.5-1.6,5.3,2.6,8.9,3c11.3,4.3,20.6,10,29.2,16.2
			c42.7,30.3,87.2,59.6,130.5,89.6c51.2,35.4,102.8,70.7,154.1,106.1c31.5,21.7,63.2,43.2,94.5,65.1c10.9,7.6,22.8,14.8,32.4,23.3
			C1265.1,310.5,1264.9,311.2,1264.1,311.9z"/>
		<path class="st43" d="M814,224c16.9,3.7,33.6,7.7,50.6,11.1c52.4,10.6,104.9,21.2,157.4,31.6c31.4,6.3,63,12.2,94.4,18.4
			c39.4,7.8,78.8,15.7,118.2,23.5c6.4,1.3,12.9,2.3,19.3,3.4c0,1,0,2.1,0.1,3.1c-3.7,2.9-9,2.6-13.9,2.4c-42.5-1.9-85-4.3-127.5-6.3
			c-39.6-1.8-79.2-4-118.8-5.9c-47.9-2.4-95.8-5.2-143.8-7.3c-63.8-2.7-127.5-6.8-191.3-9c-2.1-0.1-4.2-0.1-6,0.6
			c-2,1-4.3,1.6-7,1.5c-10.4-5.7-14.6-20.9-7.6-27.2c5.2,2.9,3.5,6.9,3.8,10.5c0.4,4.1,2.9,5.4,8.7,3.1
			c41.2-15.8,85.2-28.4,126.6-43.9c10.8-4.1,21.8-8,34.3-9.6C812.3,224,813.1,224,814,224z"/>
		<path class="st43" d="M1203.8,88c1.9,1.7,4.8,1.5,7.5,1.6c-2.1,5.3-9.4,4.4-14.6,4.1c-5.4-0.3-1.5,1.8-2.5,2.4
			c-1.6,1.6-4.4,2.4-6.3,3.8c0.3,10.5,5.9,20.2,10.3,30.1c12.7,28.4,23.6,57.1,35,85.7c10.9,27.3,24,54.3,33.8,81.8
			c1.4,3.8,3.7,7.7-0.6,11.4c-9.1-1.6-13.8-6.5-18.7-10.8c-29.3-26-56.3-52.9-84.6-79.3c-24.2-22.7-47.7-45.7-71.8-68.4
			c-10.8-10.1-21.9-20.2-31.5-30.8c-1.2-1.4-2.9-2.7-1.7-4.4c0.9,0,1.8-0.1,2.7-0.1c8.9-4.8,20.2-6.3,30.8-8.3
			c27.6-5.3,55.6-9.7,82.5-16.2c1.2-0.3,2.4-0.6,3.6-0.7C1186.5,90.3,1194.2,83.8,1203.8,88z"/>
		<path class="st44" d="M1057.9,115.2c12.8,12,25.7,24,38.3,36c31.9,30.4,62.9,61.1,95.8,91c24.3,22.1,45.3,45.6,71.9,66.7
			c0.6,0.3,0.8,0.6,0.6,1c-0.2,0.3-0.4,0.5-0.5,0.5c-9.2-3.7-15.8-9.2-23.1-14.1c-42.8-29.1-85.3-58.4-127.9-87.6
			c-40.3-27.7-80.4-55.4-120.7-83.1c-43.2-30-86.7-59.8-130.1-89.6c-12.8-8.8-25.4-17.6-38.2-26.4c10.5-0.2,16.7,5.1,24,8.4
			c35.6,16.1,70.5,32.8,105.8,49.2C988.4,83.3,1023.2,99.2,1057.9,115.2z"/>
		<path class="st45" d="M811.4,224c-13.8,7.4-30.8,11.1-46.2,16.7c-37.3,13.7-76.6,25.1-113.5,39.3c-3.5,1.3-7,3.8-11.2,2.4
			c-4.5-1.5-2.2-4.8-2.5-7.3c-0.3-3.7-0.1-7.4-0.1-11.2c3.3-33.1,6.6-66.1,9.8-99.2c0.5-5.3,0.3-10.6,0.4-16
			c15.8,5.3,30,12.1,44.3,18.9C732.2,186.5,771.8,205.3,811.4,224z"/>
		<path class="st46" d="M1203.8,88c-9.1-1.1-15.7,5.4-25.2,3.2c1-9.3,9-17.1,14.6-25.3c6.7-9.7,13.1-19.5,20.5-29
			c30.1-2.4,60.2-4.7,90.3-7.2c39.5-3.4,79-6.9,118.5-10.5c27.6-2.5,55.1-5.3,82.6-7.9c27.1-2.6,54.2-5.3,81.3-7.9
			c3.2-0.3,6.8-0.5,9.3,1.5c-74.1,15.8-148.3,31.7-222.5,47.4C1316.9,64.2,1260.3,76.1,1203.8,88z"/>
		<path class="st47" d="M1176.3,91.1c-0.4,3.2-4.7,3.5-8.1,4.1c-33.4,6.4-66.8,12.8-100.2,19.1c-2.4,0.4-4.9,0.5-7.4,0.7
			c0.4-16.2,9.1-31.6,13.1-47.4c4.9-19.8,12.6-39.3,18.3-58.9c1-3.4,2.4-3.3,6.1-2.3c5.7,0.8,7.3,4.2,10,6.8
			c23.6,23,43.2,47.5,66.3,70.6C1176.5,86,1179.3,88.3,1176.3,91.1z"/>
		<path class="st48" d="M1176.3,91.1c-22.1-23.9-44.2-47.8-66.3-71.7c-4-4.3-8-8.7-11.9-13c1.8-5.1,6.3-1.9,9.3-1
			c33.9,10.1,67.7,20.4,101.6,30.5c1.5,0.5,3.2,0.6,4.8,0.9c1.1,4.7-1.5,8.9-4.8,12.9c-11.2,13.5-17.9,28.3-30.4,41.4
			C1177.8,91.2,1177,91.2,1176.3,91.1z"/>
		<path class="st49" d="M459.6,910.4c4.1,2.8,3.7,5.1-0.9,7.9c-23.2,14.5-45.9,29.3-68,44.5c-27.6,19-56.5,37.3-84.6,56.1
			c-4,2.7-7.3,4.2-12.6,1.9c-21.1-33.2-42.2-66.4-63.3-99.6c-23.3-36.6-46.6-73.3-70-109.9c-0.8-1.1-1.6-2.2-2.4-3.3
			c5.8-3.3,11.6-3.1,17.5-0.2c1.8,3.1-2.7,2.5-3.7,3c27.7,9,55.7,18.7,83.9,28.3c56,19.1,112.4,37.8,168.4,56.8
			C436.3,900.1,449.7,903.6,459.6,910.4z"/>
		<path class="st50" d="M464.4,907.2c-1.6-0.5-3.2-1-4.9-1.5c-7.3,0.5-8.8-3.5-11.2-6.3c-20-24-42.9-47-63.7-70.7
			c-6.3-7.2-12.8-13.5-26.3-15.5c-1-1.1-1.1-2.3-0.3-3.5c1.3-0.9,3-1.4,4.8-1.6c6.8-1.3,2.1-3.9,1-5.6
			c-10.1-15.2-20.4-30.3-30.8-45.4c-23.7-34.6-48-69.1-71-103.9c-1.7-2.6-4.6-5.3-1.3-8.2c0.5-1.3,0.8-2.6,3.9-1.7
			c26.6,7.8,53.2,15.5,79.8,23.2c1.5,0.4,3.2,0.4,4.8,0.6c0.8-0.1,1.5-0.2,2.3-0.3c16.8-0.8,33.2,1.7,49.8,2.9
			c13.3,1,26.5,2.2,39.7,3.2c17.3,1.3,22.2,5.1,22.3,16.2c0.1,18.3,0.1,36.7,0,55c0,4.6,0.5,9,2.6,13.4c0.4,1,0.7,2.1,0.7,3.2
			c-0.7,41.3,4.9,82.6,2.7,123.9c-1.5,4.6-0.6,9.3-1,14C468.1,901.6,469,904.9,464.4,907.2z"/>
		<path class="st51" d="M52.4,510.4c-0.1-1-0.1-2.1-0.2-3.2c1.7,0,3.5,0,5.2-0.1c6.6-3.9,14.8-3,22.6-3c88.1-0.1,176.1,0,264.2,0
			c8.8,0,17.5,0.2,26.3-0.5c2.3-0.1,4.6,0,6.8,0.4c4.2,1,7.1,2.6,7.7,5.6c-2.3,3.3-7,2.2-10.9,2.5c-12.1,2.8-14.5,10.8-19.3,16.6
			c-12.9,15.8-27.8,30.8-40.2,46.7c-10,12.8-21.7,25-32.2,37.6c-6.3,7.6-12,15.6-19.7,22.7c-5.5,5.1-11.2,1.8-15.5-1
			c-38-24.4-76.4-48.7-113.6-73.6c-22.1-14.8-44.5-29.5-67.1-44.1C62.3,514.3,58,511.8,52.4,510.4z"/>
		<path class="st52" d="M374.1,512c1.5-5.2,6.7-1.1,10.1-1.7c7.2-0.6,12.9,1.8,18.5,4c57.9,22.6,116.3,44.8,175,66.6
			c3.2,1.2,6.5,2.4,8.4,4.6c1.2,6.8-9.4,6.6-14.4,9.8c-46.7,17-95,32.1-142.1,48.6c-20.5,7.2-41.2,14-62,20.7
			c-5.6,1.8-11.4,4.7-18.6,2.4l0.2-0.1c2.5-14.7,4.9-29.4,7.3-44.1c3.3-19.9,5.9-39.9,9.1-59.9c2.2-13.9,5.2-27.8,5.9-41.8
			C371.8,518.1,371.4,514.9,374.1,512z"/>
		<path class="st52" d="M364.1,809.4c-1.7,0.1-3.4,0.2-5.1,0.2c-6.2,1.7-11.5-0.5-16.8-1.7c-79.6-18.7-160-36.1-239.2-55.4
			c-9.6-2.3-20.6-3.1-28-8.4c-5.1-8.5-5.7-17.6-7.3-26.5c-3-16-5.4-32.1-6.9-48.2c-0.1-1.5-10.2-10.9,6.9-7.1
			c10.5,1.4,18.4,5.8,26.5,9.8c86.7,43.2,174.5,85.5,261.6,128.4c2,1,4.1,1.9,6.3,2.6C365.5,804.8,367.3,806.8,364.1,809.4z"/>
		<path class="st53" d="M75,744.1c40.4,7.8,79.4,18.2,119.2,27.1c51.6,11.6,103.1,23.6,154.6,35.4c3.5,0.8,6.9,2,10.3,3
			c0,1-0.1,2.1-0.1,3.1c-5.2,3.7-12.2,3.3-18.7,3c-50.3-1.8-100.7-2.4-151.1-3.2c-5-0.1-10.1-0.2-13.7-3.1c-5.4-2.8-11.8-1-17.6-1.5
			c-26.3-19.7-52.6-39.4-79-59.1C77,747.5,75.1,746.1,75,744.1z"/>
		<path class="st8" d="M364.1,809.4c0-2.3-0.6-4.4-5.2-4.6c-13.9-11.6-29.1-22.5-44-33.5c-30-22.1-59.1-44.7-89.2-66.7
			c-2.8-2-5.5-4.1-4.7-7c-3.3-7.3,5.1-12.2,9-18.1c6.6-10.2,16.2-19.4,22.2-29.8c0.9-1.5,1.5-6.5,8.7-4.7
			c18,26.6,36.1,53.2,54.2,79.8c18.4,27.1,36.8,54.2,55.1,81.3c1,1.4,4.4,3.3,0.6,4.8C368.4,811.6,365.7,811,364.1,809.4z"/>
		<path class="st54" d="M220.9,697.5c44.3,33.2,88.5,66.4,132.8,99.6c3,2.3,6.4,4.3,5.2,7.6c-68.7-33.5-137.4-66.9-206.1-100.4
			c-28.5-13.9-56.8-28-85.2-42.1c0.6-2.8,2.5-2.5,6-1.5c44.7,11.7,90.2,22.1,135.8,32.1C214.1,693.8,216.5,696.5,220.9,697.5z"/>
		<path class="st46" d="M326.4,347.2c4.4,5,6.6,6.2,12-0.3c19.6-23.7,40.7-46.8,61-70.3c24.7-28.5,49.2-57.1,73.6-85.8
			c13.5-15.8,27.9-31.2,40.1-47.4c2.2-2.9,4.4-6.4,9.9-7.8c3,1.5,1.3,3.5,1.9,5.2c-1.7,21.4-6,42.7-9.5,64
			c-3,17.9-5.3,35.8-8.2,53.7c-3.9,24.7-8,49.4-12,74.2c-2.6,16.3-4.9,32.6-7.3,49c-3.6,23.7-7.2,47.4-10.8,71.1
			c1.9,1.6,1.3,2.8-1.6,3.6c-13.6-5.2-21.3-14-32.2-20.9c-33.2-20.9-65.9-42.2-98.2-63.8c-4.7-3.1-10-5.6-15.7-7.9
			c-1.8-1.2-2.9-2.4-0.7-3.9c-1.2-5.8-10.9-3.4-15.1-6.4c0.8-0.5,1.6-1,2.5-1.5c0.3-1.1,1.4-1.9,3-2.4
			C321.9,349.1,324,348,326.4,347.2z"/>
		<path class="st55" d="M328.9,360c0.8,1.1,1.6,2.2,2.4,3.3c4.9,3,6,6.9,7.2,10.8c11.8,39,24.2,77.8,36,116.8
			c1.5,4.8,4.9,9.8-0.2,14.7c-5,1.8-10.4,1.6-15.9,1.6c-100.3,0-200.7,0-301,0c-0.2-2.5,1-4.4,4.3-6.2
			c54.9-29.3,109.7-58.7,164.4-88.2c31.5-17,62.8-34.1,94-51.3C322.9,360,325.2,358.6,328.9,360z"/>
		<path class="st9" d="M788.8,924.9c-52.5-1.7-105.1-2.8-157.6-5.1c-38.7-1.7-77.4-3-116.1-4.9c-16-0.8-32.5,0.3-48.2-2.8
			c0.3-0.3,0.6-0.7,0.9-1.1c18.6-9,40.9-13.2,62.1-18.8c39.4-10.3,79.7-19.4,119-29.9c30.4-8.1,61.5-15.2,92.1-23
			c34.9-8.9,69.7-17.7,105.1-25.8c6.5-1.5-3.6-2.7,0.3-3.8c8.4-4.5,17.8-3.1,27.2-1.9c8.6,3,1.3,6.5,0.6,9.8
			c-13,18.8-26,37.6-39.1,56.4c-10.1,14.5-20.4,28.9-30.3,43.4c-2,3-3.6,5.9-8.6,7.4C793.9,926.1,791.4,926.1,788.8,924.9z"/>
		<path class="st56" d="M874.4,817.6c-1.5-2.7,4.2-5.3,0-8c-11.5-12.3-27.7-22-42.6-32.5c-41.8-29.5-83.4-59-124.5-88.9
			c-3.3-2.4-8.8-4.5-6.1-8.7c7.8-1.8,13.9,1.1,19.9,3.2c57.3,20.2,116.2,38.7,173.6,58.7c28.2,9.8,57,19,85,29
			c2.3,0.8,4.4,1.4,7,1.3c1.8,0.1,3.5,0.5,5,1.2c2.5,1.6,5.5,2.9,7.4,4.9c0.5,0.7,0.9,1.5,1.1,2.3c11.4,26.2,26,51.7,40,77.3
			c6.3,11.6,11.6,23.3,17.9,34.9c1.5,2.7,3.4,5.6,0,8.3h-0.1c-34.4-15.8-65.9-33.8-98.8-50.9c-23.5-12.2-46.9-24.4-70.3-36.7
			C878.8,808,879.1,816,874.4,817.6z"/>
		<path class="st50" d="M801.5,928c3.5-5.8,12.5-3.7,18.4-4.3c52.2-4.9,104.6-8.9,156.9-13.4c23.9-2.1,47.4-5.4,71.5-6.7
			c2.8-0.2,5.9-1.7,7.6,0.7c1.3,1.8-1.8,2.7-3.3,3.9c-46.1,36.2-92.1,72.5-138.4,108.6c-3.9,3.1-8.5,10.2-17.2,2.5
			c-5.8,0.5-8-2.5-10.3-4.8c-26.7-26.3-54.3-52.2-80.7-78.6C803.5,933.5,799.6,931.4,801.5,928z"/>
		<path class="st57" d="M788.8,924.9c2.5,0,5.1,0,7.6,0c0,0.5,0,1.1,0,1.6c2.3,1.7,1.7,3.5,0.2,5.2c-19.5,21.3-40.2,42.1-63.1,62
			c-34.2,2.5-68.4,5.6-102.7,7.4c-31.9,1.6-63.6,4.6-95.4,7c-41.3,3-82.5,6.2-123.7,9.3c-30.9,2.3-61.9,4.5-92.9,6.7
			c0.5-3,4.1-3.8,7.7-4.5c34.3-6.6,68.8-12.6,102.7-19.9c35.1-7.6,70.8-14.1,106.1-21.3c29.4-6,59-11.5,88.4-17.4
			c30.9-6.3,61.9-12.7,92.9-18.8c19.5-3.8,39-7.5,58.4-11.5C780.3,929.5,787.4,929.8,788.8,924.9z"/>
		<path class="st58" d="M733.5,993.7c5.2-11.1,17.5-19.5,26.7-29c12.3-12.7,26.3-24.7,36.3-38.2c1.7,0.5,3.3,1,5,1.6
			c16.1,14.8,31.3,30,46.3,45.3c15.4,15.7,32.7,30.7,49.1,46c-1,4.1-6.2,2.8-10.1,3.2c-35.8-6.6-71.5-13.2-107.3-19.9
			C764.2,999.7,748.9,996.7,733.5,993.7z"/>
		<path class="st8" d="M1058,900.8c-15.6-29.5-31.4-59-46.9-88.6c-5.1-9.8-9.7-19.7-14.6-29.5c-0.7-1.4-0.7-2.5,1.2-3.5
			c3-1.7,6.6-2.2,10.5-1.7c45.8,2.8,90.9,8.8,136.3,13.1c77,7.3,153.7,15.4,230.5,23.2c5.3,0.5,10.9,0.8,14.7,3.8
			c3.5,2.4,8.3,1.3,12.5,1.7c-4.5,5.1-13.4,5.9-20.8,7.7c-65.7,15.5-131.7,30.4-197.5,45.8c-37.5,8.8-74.4,18.6-112.5,26.5
			C1067,900.2,1062.7,901.1,1058,900.8z"/>
		<path class="st59" d="M1412.3,824c8.4,36.7,16.8,73.5,25.4,110.2c0.8,3.3,3.2,6.5,4.8,9.8c-11.5,1.1-20.3,5.8-29.5,9.6
			c-47.5,19.6-96.9,37.2-143.5,57.8c-7.1,3.1-15.4,5.2-23.1,7.8c7.3-14.5,20.2-27.3,31.1-40.7c17.9-21.9,37.3-43.3,55.6-65
			c23.7-28.1,46.9-56.3,70.2-84.5C1405.4,826.5,1407.2,824.1,1412.3,824z"/>
		<path class="st60" d="M1007.6,779.3c-3.3,0-6.6-0.1-9.9-0.1c-0.1-0.5-0.1-1-0.1-1.5c-3.8-3.6,1-6,3.4-8.5
			c26.5-27.5,57.9-52.9,86.4-79.5c26.6-24.9,55.8-48.5,80.9-74.1c4.8-4.9,7.7-4.7,12.6,0.5c22.3,44.4,44.6,88.7,66.9,133.1
			c1.8,3.5,4.1,7,4,10.8c-3.6,4.2-10.2,4.3-16.4,4.5c-74.5,3.6-148.3,11.7-223,14.1C1010.7,778.6,1009.2,779,1007.6,779.3z"/>
		<path class="st40" d="M1180.9,616c-3-1.8-6.3-4.7-9.3-0.2c-8,12.1-22.1,21.7-33.6,32.3c-15.7,14.7-32.7,28.8-48.7,43.4
			c-30.5,27.9-60.7,55.9-91,83.8c-0.7,0.6-0.6,1.5-0.9,2.3c-3.6-0.1-6.1-1.1-7.5-3.3c-6.8-32.4-13.7-64.9-17-97.5
			c-0.6-6.2-3-12.1-4.3-18.2c-1-4.8-1.3-9.6,0.2-14.3c0.4-0.9,1-1.8,1.8-2.6c2.4-1.9,5.9-2.6,9.2-3.7c21.8-4.6,44.4-7.5,66.8-10.5
			c36.4-4.7,72.2-10.9,108.5-15.9c9.8-1.4,17.6-3.3,17.4-10.9c-0.1-1.6,1.3-3.1,3.6-4c6,4.7-2,12,7.4,16
			C1182.7,613.9,1181.8,614.9,1180.9,616z"/>
		<path class="st61" d="M1007.6,779.3c3.5-5.9,12.5-3.8,18.3-4.1c48.7-2.7,97.2-5.5,145.6-10c20.5-1.9,41.3-2.6,61.9-3.5
			c6.3-0.3,12.4-0.7,18.4-1.8c1.6,0,3.1,0.1,4.7,0.2c31.7,14.6,66.4,26.1,99.8,39c11.8,4.5,23.5,9.1,35.2,13.6
			c2.1,0.8,5,1.4,4.4,3.4c-0.7,2.1-3.9,1.4-6.2,1.7c-30.3-1.5-59.9-5.8-89.8-8.6c-41.9-4-83.8-8.1-125.7-12.3
			c-31.6-3.2-63-6.7-94.6-9.9c-21.7-2.2-43.2-5.4-65.2-6.1C1011.9,780.7,1009.4,780.6,1007.6,779.3z"/>
		<path class="st62" d="M175.6,809.5c46.2,0.6,92.4,0.8,138.6,2c14.9,0.4,29.8,1.4,44.8,1.3c13-1.9,19.2,3.2,24.8,9.5
			c17.7,19.7,35.6,39.3,53.6,59c7.4,8.1,12.1,17.3,22.1,24.5c0,1.6,0,3.2,0,4.8c-27.3-9.1-54.6-18.1-81.8-27.2
			c-29.5-9.8-59.1-19.5-88.5-29.5c-30-10.2-59.8-20.8-89.8-31.1c-11.3-3.9-22.8-7.5-37.2-12.3C168.9,809.9,172.2,809.7,175.6,809.5z
			"/>
		<path class="st9" d="M464.4,907.2c0.1-7.5,0.3-14.9,0.4-22.3c2.4-0.1,4.2,0.7,4.7,2c3,8.5,5.4,17-2.2,25.1H467
			C464.2,910.8,464.8,908.9,464.4,907.2z"/>
		<path class="st49" d="M326.4,347.2c0,3.4,0.7,7.5-7.5,3.2c-7.4-1.7-11.9-5.6-16.8-9.2c-44.8-32-88.4-64.6-133.1-96.6
			c-29.4-21.1-58.3-42.5-87.6-63.7c-2-1.4-3.7-2.9-3.9-4.9c-13.4-17.2-26.7-34.4-40.1-51.6c-3.9-4.9-8.2-9.8-12-14.7
			c-1.3-1.7-4.5-3.6-0.7-5.6c23.8,6.3,47.4,12.8,71.3,19c35.8,9.3,71.8,18.2,107.5,27.5c27.7,7.2,55.1,14.9,82.6,22.3
			c3.3,12.8,6.9,25.5,9.9,38.4c5.5,23.6,10.6,47.2,15.7,70.8c4.1,18.6,8,37.2,12.1,55.8C324.6,340.9,325.6,344,326.4,347.2z"/>
		<path class="st63" d="M1580.7,91.2c0.9,1.1,1.8,2.1,2.7,3.2c-4.8,11,0.7,21.9,0.6,32.8c-0.1,12.9,3.5,25.8,4.2,38.8
			c1,19.9,7.2,39.6,5.5,59.5c-0.3,2.8,1.4,5.8,4.7,8c-4.6,2.9-6.5-0.5-8.9-1.7c-51.7-27.6-103.4-55.1-154.9-82.8
			c-11.8-6.3-23.1-12.9-34.7-19.4c-1.5-1.1-1.7-2.3-1-3.6c5.1-4.7,13.5-4.9,20.9-6.2c52.5-9.3,104.8-19.2,157.1-29.1
			C1578.3,90.5,1579.6,90.6,1580.7,91.2z"/>
		<path class="st64" d="M1399.8,126.4c0,1.1,0,2.1,0,3.2c-0.8,0.5-1.7,1.1-2.5,1.6c-9.1,1.1-1.9,7.4-7.4,9.6
			c-5.5-1.3-6.4,1.7-7.3,3.7c-7,15-18.7,28.7-27.8,43.1c-15.2,24.3-29.9,48.7-46.9,72.5c-10.4,14.6-17.3,30.3-31.2,43.9
			c-2.2,1-4.3,0.9-6.2-0.3c-4.9-10.8-1.4-21.7,0-32.4c3-22.8,2.9-45.7,6.8-68.4c2.2-12.7,1-25.5,4.6-38.1c2.7-4.5,9.6-5.5,15.4-7.5
			c31.1-10.7,62.4-21.3,93.4-32.2C1393.9,124.5,1397.2,124.5,1399.8,126.4z"/>
		<path class="st11" d="M1399.8,126.4c-3.4,0-6.8,0-10.1,0.1c-4.6,2.4-9.5,1.3-14.3,0.5c-55.9-8.8-112-17.3-167.8-26.3
			c-5.2-0.8-10.9-1.2-13.8-4.8c-1.6-0.7-3.2-1.5-4.8-2.2c6.5-3.3,15.6-1.2,22.3-4.1c25.5-2.3,51-4.5,76.5-7
			c51.7-5.1,103.4-10.3,155.1-15.4c24.6-2.5,49.2-5,73.8-7.4c5.3-0.5,10.8-0.4,16.2-0.5c2.7,0,4.9,0.8,6.6,1.9
			c12.5,8.5,24.6,17.2,37.3,25.6c1.7,1.2,2.6,2.7,1.5,4.4c-1.8,4.4-8.2,3.9-13.1,4.8C1510.2,106.2,1455,116.3,1399.8,126.4z"/>
		<path class="st65" d="M1578.4,91.2c-15.1-10.6-30.3-21.3-45.5-31.9c4.6-7.7,15.7-12.2,23.3-18.4c13.4-11,28.8-21,43.4-31.5
			c1.8-1.3,2.9-3.7,6.4-1.3c-1.8,19.1-9.8,37.5-15.7,56.1c-2.9,9-6.4,18-9.6,27C1579.9,91.2,1579.2,91.2,1578.4,91.2z"/>
		<path class="st66" d="M77.6,176c19.5,10.5,34.2,23.9,51.4,35.8c20.6,14.3,40,29.2,60,43.8c39.7,29,79.5,58,119.3,87
			c3.6,2.6,7.2,5.2,10.8,7.8c-0.9,0.6-1.8,1.1-2.7,1.7c-24.3-12.1-50.4-22.5-75.5-33.9c-52-23.4-103.6-47.1-155.4-70.7
			c-3.3-1.5-6.9-2.9-10.4-4.3c0-21.9,0-43.7,0-65.6C75.8,177.1,76.7,176.5,77.6,176z"/>
		<path class="st67" d="M980,640c-1.9,1.7-4.8,1.6-7.6,1.6c-6.8-2.1-5.7-6.1-5.5-9.7c1.8-32.9,4.9-65.7,6.6-98.6
			c0.8-15.3,1.5-30.8,5.1-46c0.6-2.6,0-5.4,3.9-7.3c30,2.9,59.1,8.3,88.6,12.6c29.9,4.4,59.3,10.2,89.8,13c0.9,1.1,1.7,2.1,2.6,3.2
			c-8,9.2-20.7,15.9-31.5,23.6c-37.5,26.6-75.5,53-113.6,79.4C1005.1,620.9,991.7,630,980,640z"/>
		<path class="st68" d="M980,640c-2.7-6.5,6.8-9.1,11.5-12.5c29.6-21.3,60.3-41.9,90.4-62.8c23.4-16.3,46.5-32.7,69.4-49.2
			c3.7-2.6,7.6-4.9,12.2-6.7c4,26.1,8,52.2,12,78.4c0.5,3.2,0.5,6.4,0.8,9.6c0,1.9-0.5,3.8,0,5.6c1.8,7-3.1,9.6-13.8,11.1
			C1101.5,622,1040.8,631.1,980,640z"/>
		<path class="st57" d="M982.5,480c-2.3,39.2-6.4,78.3-8.2,117.5c-0.6,12.9-0.4,25.9-3.3,38.8c-0.4,2,0.1,3.7,1.4,5.3
			c0,0.5,0,1.1,0,1.6c-18.5,0.6-35.9-3.3-53.7-5.3c-37.6-4.3-75-9.5-112.8-13c-2.7,0.3-5.2-0.1-7.5-0.9c-2.7-1-5.1-2.2-7.2-3.6
			c-35.6-19.4-71.9-38.2-108.5-56.8c-64.1-32.5-127.2-65.9-192.9-99.4c11.9,14.7,22,28.5,33.7,41.8c19.8,22.6,38.1,45.6,57.1,68.4
			c2.7,3.2,6.2,6.4,5.6,10.4c-0.3,0.3-0.7,0.6-1,0.9c-29.6-9.1-57-20.8-85.2-31.5c-33.6-12.8-67.2-25.5-100.6-38.6
			c-5-1.9-11.5-2-15.1-5.4c-1.7-1.6-3.4-3.2-5.1-4.8c-1.1-3.3,2.8-4.9,5.8-6.5c26.7-14,53.5-27.8,80.7-41.3c2.5-1.3,5.2-2.8,8.9-1.8
			c1.9-0.7,2.5-1.9,2.6-3.2c4.9,2.4,9.9,0.5,14.4-0.3c97.2-15.4,194.3-30.8,291.4-46.3c5.5-0.9,11.6-1.4,15.7-4.5
			c3.6-0.8,5.6,0.5,7,2.3c0.7,1.5,0.7,2.9,0,4.4c0.6,23.1,1.6,46.3,0.1,69.4c-2.4,38.3-2.1,76.6-2.2,114.9c0,2.9-1.1,5.8-1.1,8.7
			c0.2,3.7-0.5,7.4,0.6,12c12-8.1,22.8-16.1,32.9-24.3c41.1-33.2,84.9-65.1,126.6-98c4.9-3.9,12.2-6.8,12.9-12.4
			c0.7-1.5,1.9-2.8,4.3-3.5C982.7,476.4,982.4,478.3,982.5,480z"/>
		<path class="st69" d="M980,475.2c-0.1,1.3-0.7,2.5-2.6,3.2c-3.7,2.8-8.9,3-13.8,2.6c-32.7-2.1-65.5-3.5-98.2-5.6
			c-2.5-0.2-4.9-0.6-7.2-1.2c-1.2-0.3-2.4-0.8-3.4-1.4c-2.4-4.7,4.3-5,8.1-6.2c25.2-8.2,50.4-16.3,75.8-24.2
			c5.4-1.7,11.9-2.9,13.5-7.5c1.3-3.2-1.8-5.5-4.1-8.1c-13.4-15-28.4-29.4-42.8-44c-3-3-7.3-6.2-2.2-10.1c9.5-3.9,20.9-3.5,31.3-5.3
			c75.5-12.9,151.4-24.8,227.4-36.5c26-4,51.5-9.3,77.8-12.7c5.5-0.7,11.3-2.7,16.8,0.1c-0.5,3.7-4.8,5.2-9.2,7
			c-48.4,18.9-96.8,37.8-145,56.9c-34.3,13.6-69.4,26.3-102.7,40.9c-3.4,1.5-7.8,1.9-11.4,3.2c-4.6,1.7-11.4,2.3-10.8,7.2
			c-12.4,2.1-14.5,6.7-10.1,14.2C972.6,456.7,975.8,466,980,475.2z"/>
		<path class="st70" d="M1256.5,318.4c-29.7,4.2-58.9,9.4-88.3,14.3c-47.1,7.8-94.4,15-141.6,22.4c-41.5,6.5-83.1,13-124.6,19.5
			c-6.9,2.5-12.1-0.6-17.3-2.4c-73.6-25.9-148.2-50.7-222.5-75.8c-4.7-1.6-10.3-2.7-11.4-6.8c-1-1.7-5.6-1.5-5.3-4.5
			c35.1,1.9,70.2,4.3,105.3,5.6c25,0.9,49.8,2.9,74.8,3.7c42,1.3,83.9,4,125.8,6.3c24.9,1.4,49.9,2.2,74.8,3.5
			c38.6,2,77.1,4.5,115.8,6c24.2,0.9,48.2,2.4,72.3,3.6c13.3,0.6,26.6,1.1,39.9,1.6C1254.8,316.2,1255.6,317.3,1256.5,318.4z"/>
		<path class="st71" d="M1284.1,163.2c-0.1,9.2,1,18.4-0.4,27.6c-2.2,14.2-3.8,28.4-4.8,42.7c-1.7,23.5-4.8,47-7.3,70.5
			c3,3.9,3.1,7-5.1,8c-0.8,0-1.6,0-2.4-0.1c-0.1-0.5-0.1-1-0.1-1.5s0-1-0.1-1.5c2.7-10.2-4.4-19.3-8.1-28.7
			c-16-40-32.6-79.9-49.1-119.8c-7.8-18.9-15.7-37.7-23.6-56.5c-1-2.4-4.3-5.2,2.7-6.2c10.9,1.8,16.9,7.7,23.5,12.6
			c20.7,15.4,44.2,29,65.9,43.7C1279.3,156.6,1284,159.1,1284.1,163.2z"/>
		<path class="st43" d="M1266.6,312c5.7-1.6,4.9-4.9,5.1-8c1.7,0,3.4,0,5,0c-0.8,4.8-3.6,9.5-2.7,14.4
			C1270.1,317,1266.8,315.2,1266.6,312z"/>
		<path class="st72" d="M650.7,289.6c34.4,11.8,68.9,23.5,103.3,35.3c43.6,14.9,87.3,29.8,131,44.7c5.5,1.9,11.3,3.4,17,5
			c17.5,17.9,35,35.7,52.3,53.7c1.8,1.9,8.3,4.4,0.7,6.9c-4.1,2.4-8.6,1.3-12.9,0.4c-39.5-8.6-79-17-118.8-25.2
			c-6.9-1.4-14.9-2.1-18.9-7c-1.8-0.6-3.6-1.1-5.4-1.7c-20.6-15-41-30.1-61.8-45c-30.4-21.9-61-43.7-91.5-65.5
			C647.3,290.7,649,290.1,650.7,289.6z"/>
		<path class="st63" d="M1284.1,163.2c-32.7-21.9-65.5-43.7-98.2-65.5c2-1.8,5-1.6,7.9-1.7c65.3,10.2,130.6,20.4,195.9,30.5
			c-1.6,5.4-10.2,5.1-15.5,6.8C1344.2,143.3,1315.8,155.3,1284.1,163.2z"/>
		<path class="st55" d="M467.2,911.9c-1.5-9,2.6-18.2-2.4-27.1c-1-42.7-1.9-85.4-2.9-128c-2.4-15.1-0.6-30.2-1-45.3
			c-0.3-9.8,0-19.7-0.1-29.5c4.4-5.6,8.5-1,11.3,0.6c12.5,7.1,22.6,15.6,33.8,23.5c28.2,19.6,55.6,39.6,84,59.1
			c24.7,17,48.3,34.5,73.5,51.1c10.2,1.9,20.6-0.3,30.9,0.6c7.9,0,15.9,0.6,23.7-1.1c2-0.3,4.1-0.5,6.2-0.4c8.4,0,16.9,0.5,25-1.3
			c12.3-0.6,24.5-1.8,36.8-2.2c8.7,0.6,17.3,0.7,25.8-1c11.6,0.3,23.4-4.2,34.8,0.5c3.4,0.5,7.3-1,10.8,1.4
			c-8.3,4-18.6,5.3-27.3,7.2c-21.7,4.7-41.5,12.6-64.1,15.4c-6.9,0.8-11.9,3.7-18,5.3c-18.3,5-37,9.6-55.7,13.7
			c-33.9,7.4-66.3,17.1-99.8,25c-40.3,9.6-81.3,18.7-119.2,32.1C471.7,911.9,469.3,911.8,467.2,911.9z"/>
		<path class="st73" d="M464.6,680c-4.2,2.3-2.5,5.5-2.5,8.2c-0.1,22.8-0.1,45.7-0.1,68.5c-3.6-2.5-2.2-5.5-2.3-8.4
			c-0.1-19.4-0.1-38.8-0.1-58.3c0-12-3.2-13.7-22.3-15c-28.5-1.9-56.9-4.4-85.3-6.7c-1.1-0.1-2-0.9-3-1.3
			c16.8-2.7,30.8-9.2,45.8-14.2c58.7-19.5,117-39.5,175.4-59.4c7.4-1.8,9.9-0.3,6.5,4.3c-3.3,4.3-8.7,7.8-13.8,11.3
			c-25.3,17.7-50.4,35.6-75.7,53.3c-4.4,3.1-8.9,6.2-12.6,10.4c5.3,1.8,10.3,1.2,15.1,1.2c61.5,0,123,0,184.4,0
			c6.2,0,12.6-0.3,18.7,1.1c2.1,0.7,3.8,1.6,3.3,3.4c-1.1,0.8-2.4,1.3-3.9,1.8c-6.1,1.4-12.4,1.1-18.6,1.1c-63.5,0-127,0-190.6,0.1
			C476.8,681.5,470.7,681,464.6,680z"/>
		<path class="st74" d="M474.6,456c-31.8,16.5-63.7,33-95.5,49.5c-1.6,0-3.2,0-4.8,0.1c-14.1-45.6-28.2-91.2-42.2-136.8
			c-0.6-1.8-0.5-3.7-0.8-5.5c16.2,2.7,24.8,11.6,34.9,18.7c23,16.1,48.2,30.8,71.5,46.6C450.6,437.3,465.5,445.1,474.6,456z"/>
		<path class="st75" d="M693.4,676.8c-71.9,0-143.7,0-215.6,0c-3.9,0-9.5,1.5-11.4-1.4c-1.8-2.8,3.8-4.3,6.5-6.2
			c33.1-23.8,66.3-47.6,99.5-71.3c3.7-2.6,5.7-4.4-2.2-4.3c3.7-3.6,13.4-2.6,14.8-7.8l0.3-0.2c7-1.1,12.5,0,15.6,4.5
			c1.6,1.7-7.6-0.8-2.3,3.2c31.4,24.4,60.1,50.1,90.7,74.9C692.3,670.5,695.8,673.2,693.4,676.8z"/>
		<path class="st22" d="M786.4,814.4c-12.6,0.4-25,2.5-37.7,1.7c-8.2,2.1-17-0.6-25.2,1.5c-1.7,0-3.3,0-5,0
			c-8.1,2.2-17-0.6-25.2,1.6c-8.2,0.3-16.5,0.2-24.6,0.8c-4,0.3-6.3-0.4-8.1-2.4c5.3-33.2,14.5-66,21.9-99
			c2.2-9.8,3.3-19.6,6.2-29.3c1.2-3.9,2.1-8,7.1-10.9l0.2-0.1c0.7-0.5,1.5-0.7,2.6-0.5c1.4,0.5,2.3,1.2,2.4,2.2
			c21.7,15.7,43.3,31.4,65.1,47c35.6,25.5,71.4,50.9,107.2,76.2c3.1,2.2,3.4,4,1.1,6.4c-9.2,0.7-18.8-1.6-27.6,1.6
			c-11.8,0.1-23.3,2.5-35.2,1.6C803.4,815,794.5,812.2,786.4,814.4z"/>
		<path class="st76" d="M700.9,680c-0.8-0.5-1.7-1.1-2.5-1.6c-3.7-3.6,0.9-5.4,4.2-7.2c28-15,54.7-31,82.9-45.9
			c3.9-2.1,7.9-3.9,13.5-3c1.7,0.6,3.3,1.1,5,1.7c5.3,0.4,7.5,3.2,10.3,5.4c54.7,43.4,108.9,87.2,162.8,131
			c4.6,3.8,9.9,7.3,10.3,12.5c-1.6,2-3.1,2.5-6.8,1.2c-29-10.3-58.2-20.5-87.4-30.5c-45.4-15.5-90.5-31.4-136.6-46.1
			C738.1,691.7,721.3,683.5,700.9,680z"/>
		<path class="st77" d="M987.4,772.9c-18.9-15.5-37.5-31-56.6-46.4c-39.3-31.6-78.7-63.1-118.1-94.7c-3.1-2.5-5.8-5.2-8.7-7.8
			c0.5-2.5,2.5-2.7,6.2-2.2c25.3,3.2,50.6,6.1,75.9,9.2c23.7,2.9,47.3,5.9,70.9,9c5.3,0.7,10.3,2.1,15.4,3.2
			c2.2,20.8,5.2,41.5,9.4,62.2c3.5,17,6.1,34.1,8,51.2c0.6,5.8,6.9,11.8,0.3,17.7C989.2,773.8,988.3,773.4,987.4,772.9z"/>
		<path class="st78" d="M600.4,590.4c-5-1.6-10.1-3.2-15.1-4.8c-34.3-41.6-68.7-83.2-103-124.8c0.9-0.5,1.8-1.1,2.7-1.6
			c12.8,6.4,25.8,12.7,38.5,19.1c40.1,20.2,79.4,41.1,119.2,61.5c33.3,17.1,67.5,33.6,99.5,51.8c16.7,9.5,35.5,17.5,51.6,27.5
			c-4.4,2.6-9.5,1.6-14.3,0.9c-54.5-8.5-109-16.8-163.5-25.2C610.6,594,604.5,593.5,600.4,590.4z"/>
		<path class="st27" d="M854.2,472.1c33.5,2,67.1,4,100.7,5.9c7.5,0.4,15,0.3,22.6,0.4c3,2.9,2,5-1.8,7.6
			c-27.7,19.4-53.2,40.1-79.3,60.3c-26.2,20.3-52.7,40.3-79.1,60.5c-5,3.8-9.9,7.8-15.5,12.2c-4.5-5-1.8-9.8-2.6-14.3
			c3-1.7,3.4-4.1,4.3-6.5c13.1-34.9,26.1-69.9,39-104.9C845,486.2,844.6,477.9,854.2,472.1z"/>
		<path class="st9" d="M600.4,590.4c19.4,1.4,37.9,5.3,56.8,8.1c45.6,6.8,91.1,13.8,136.7,20.7c1.7,1,3.4,2.1,5.1,3.1
			c-15.8,5.5-28.2,14-41.6,21.3c-18.9,10.4-37.2,21.2-56.5,31.2c-1.4,0.7-1.6,2.3-2.4,3.5c-0.8,0-1.7,0-2.5,0
			c-0.8-0.5-1.7-1.1-2.5-1.6c-18.9-18.8-42-35.5-62.7-53.4c-10.8-9.3-22.2-18.4-33.2-27.7C594.7,593.3,591.2,590.3,600.4,590.4z"/>
		<path class="st45" d="M854.2,472.1c-15,41-30,81.9-45.2,122.9c-1.4,3.8-0.7,9-9.9,9.8c0-31.2-1.9-62.3,0.5-93.4
			c2.5-33,0.8-65.9,1.9-98.9c0.1-2.1-0.5-4.3,2.3-6c4.9,0.5,6.4,3.1,8.3,5.4c13.8,16.1,25.3,32.9,38.2,49.2
			c2.6,3.3,4.2,6.9,4.1,10.6L854.2,472.1z"/>
		<path class="st79" d="M854.5,471.8c-16.9-21.8-33.7-43.5-50.6-65.3c0.1-1,0.3-2.1,0.4-3.1c50.2,10.6,100.4,21.2,150.6,31.8
			c3.4,5.6-4.5,6.1-9,7.6C915.5,452.6,884.9,462.1,854.5,471.8z"/>
		<path class="st50" d="M695.8,678.5c-4.5,20.2-9.3,40.3-13.6,60.5c-4.6,21.5-11.2,42.8-14.4,64.5c-0.7,4.7,1.5,10.8-7.2,14.1
			c-27.4-19-54.9-37.9-82.2-57c-18.3-12.8-36.2-25.8-54.3-38.6c-19.8-14-39.7-28-59.6-42c3.3-2.3,7.7-1.6,11.8-1.6
			C549.5,678.4,622.6,678.5,695.8,678.5z"/>
		<path class="st9" d="M786.4,814.4c8-3.1,16.8-1,25.2-1.6C803.5,816,794.7,813.8,786.4,814.4z"/>
		<path class="st9" d="M693.3,819.2c8-3,16.8-1,25.2-1.6C710.5,820.8,701.7,818.6,693.3,819.2z"/>
		<path class="st9" d="M723.5,817.6c8-3.1,16.8-1,25.2-1.5C740.7,819.2,731.9,817,723.5,817.6z"/>
	</g>
</g>
<polygon class="st80" points="1623.3,735.8 2.1,975.7 0,1025.6 1626.3,1025.6 "/>
</svg>
